<svg id="visual" viewBox="0 0 900 450" width="900" height="450" xmlns="http://www.w3.org/2000/svg" xmlns:xlink="http://www.w3.org/1999/xlink" version="1.1"><rect x="0" y="0" width="900" height="450" fill="#050a12"></rect><path d="M0 386L37.5 384C75 382 150 378 225 377.8C300 377.7 375 381.3 450 382.8C525 384.3 600 383.7 675 383.7C750 383.7 825 384.3 862.5 384.7L900 385L900 451L862.5 451C825 451 750 451 675 451C600 451 525 451 450 451C375 451 300 451 225 451C150 451 75 451 37.5 451L0 451Z" fill="#4f46e5"></path><path d="M0 414L37.5 409C75 404 150 394 225 387.5C300 381 375 378 450 381.3C525 384.7 600 394.3 675 396.8C750 399.3 825 394.7 862.5 392.3L900 390L900 451L862.5 451C825 451 750 451 675 451C600 451 525 451 450 451C375 451 300 451 225 451C150 451 75 451 37.5 451L0 451Z" fill="#7f3bd6"></path><path d="M0 386L37.5 388C75 390 150 394 225 399.2C300 404.3 375 410.7 450 412.2C525 413.7 600 410.3 675 407.5C750 404.7 825 402.3 862.5 401.2L900 400L900 451L862.5 451C825 451 750 451 675 451C600 451 525 451 450 451C375 451 300 451 225 451C150 451 75 451 37.5 451L0 451Z" fill="#9d2ec6"></path><path d="M0 414L37.5 410.3C75 406.7 150 399.3 225 395.5C300 391.7 375 391.3 450 394.7C525 398 600 405 675 406.5C750 408 825 404 862.5 402L900 400L900 451L862.5 451C825 451 750 451 675 451C600 451 525 451 450 451C375 451 300 451 225 451C150 451 75 451 37.5 451L0 451Z" fill="#b322b5"></path><path d="M0 430L37.5 429.3C75 428.7 150 427.3 225 426.8C300 426.3 375 426.7 450 425.5C525 424.3 600 421.7 675 420C750 418.3 825 417.7 862.5 417.3L900 417L900 451L862.5 451C825 451 750 451 675 451C600 451 525 451 450 451C375 451 300 451 225 451C150 451 75 451 37.5 451L0 451Z" fill="#c317a5"></path><path d="M0 420L37.5 422.5C75 425 150 430 225 432.7C300 435.3 375 435.7 450 435.8C525 436 600 436 675 435.2C750 434.3 825 432.7 862.5 431.8L900 431L900 451L862.5 451C825 451 750 451 675 451C600 451 525 451 450 451C375 451 300 451 225 451C150 451 75 451 37.5 451L0 451Z" fill="#cf1495"></path><path d="M0 426L37.5 426.2C75 426.3 150 426.7 225 428.2C300 429.7 375 432.3 450 433.8C525 435.3 600 435.7 675 435C750 434.3 825 432.7 862.5 431.8L900 431L900 451L862.5 451C825 451 750 451 675 451C600 451 525 451 450 451C375 451 300 451 225 451C150 451 75 451 37.5 451L0 451Z" fill="#d61b85"></path><path d="M0 448L37.5 447.5C75 447 150 446 225 443.8C300 441.7 375 438.3 450 438.7C525 439 600 443 675 444.5C750 446 825 445 862.5 444.5L900 444L900 451L862.5 451C825 451 750 451 675 451C600 451 525 451 450 451C375 451 300 451 225 451C150 451 75 451 37.5 451L0 451Z" fill="#db2777"></path></svg>