<svg id="visual" viewBox="0 0 900 450" width="900" height="450" xmlns="http://www.w3.org/2000/svg" xmlns:xlink="http://www.w3.org/1999/xlink" version="1.1"><rect x="0" y="0" width="900" height="450" fill="#050a12"></rect><path d="M0 418L37.5 416.8C75 415.7 150 413.3 225 413.2C300 413 375 415 450 415.8C525 416.7 600 416.3 675 416.3C750 416.3 825 416.7 862.5 416.8L900 417L900 451L862.5 451C825 451 750 451 675 451C600 451 525 451 450 451C375 451 300 451 225 451C150 451 75 451 37.5 451L0 451Z" fill="#4f46e5"></path><path d="M0 432L37.5 429.5C75 427 150 422 225 418.7C300 415.3 375 413.7 450 415.2C525 416.7 600 421.3 675 422.7C750 424 825 422 862.5 421L900 420L900 451L862.5 451C825 451 750 451 675 451C600 451 525 451 450 451C375 451 300 451 225 451C150 451 75 451 37.5 451L0 451Z" fill="#7f3bd6"></path><path d="M0 418L37.5 418.8C75 419.7 150 421.3 225 423.8C300 426.3 375 429.7 450 430.5C525 431.3 600 429.7 675 428.3C750 427 825 426 862.5 425.5L900 425L900 451L862.5 451C825 451 750 451 675 451C600 451 525 451 450 451C375 451 300 451 225 451C150 451 75 451 37.5 451L0 451Z" fill="#9d2ec6"></path><path d="M0 431L37.5 429.2C75 427.3 150 423.7 225 421.8C300 420 375 420 450 421.7C525 423.3 600 426.7 675 427.5C750 428.3 825 426.7 862.5 425.8L900 425L900 451L862.5 451C825 451 750 451 675 451C600 451 525 451 450 451C375 451 300 451 225 451C150 451 75 451 37.5 451L0 451Z" fill="#b322b5"></path><path d="M0 440L37.5 439.7C75 439.3 150 438.7 225 438.3C300 438 375 438 450 437.3C525 436.7 600 435.3 675 434.5C750 433.7 825 433.3 862.5 433.2L900 433L900 451L862.5 451C825 451 750 451 675 451C600 451 525 451 450 451C375 451 300 451 225 451C150 451 75 451 37.5 451L0 451Z" fill="#c317a5"></path><path d="M0 434L37.5 435.3C75 436.7 150 439.3 225 440.8C300 442.3 375 442.7 450 442.8C525 443 600 443 675 442.5C750 442 825 441 862.5 440.5L900 440L900 451L862.5 451C825 451 750 451 675 451C600 451 525 451 450 451C375 451 300 451 225 451C150 451 75 451 37.5 451L0 451Z" fill="#cf1495"></path><path d="M0 438L37.5 438C75 438 150 438 225 438.7C300 439.3 375 440.7 450 441.5C525 442.3 600 442.7 675 442.3C750 442 825 441 862.5 440.5L900 440L900 451L862.5 451C825 451 750 451 675 451C600 451 525 451 450 451C375 451 300 451 225 451C150 451 75 451 37.5 451L0 451Z" fill="#d61b85"></path><path d="M0 448L37.5 447.8C75 447.7 150 447.3 225 446.3C300 445.3 375 443.7 450 443.8C525 444 600 446 675 446.7C750 447.3 825 446.7 862.5 446.3L900 446L900 451L862.5 451C825 451 750 451 675 451C600 451 525 451 450 451C375 451 300 451 225 451C150 451 75 451 37.5 451L0 451Z" fill="#db2777"></path></svg>