<svg id="visual" viewBox="0 0 900 450" width="900" height="450" xmlns="http://www.w3.org/2000/svg" xmlns:xlink="http://www.w3.org/1999/xlink" version="1.1"><rect x="0" y="0" width="900" height="450" fill="#050a12"></rect><path d="M0 359L30 362C60 365 120 371 180 372.7C240 374.3 300 371.7 360 373.2C420 374.7 480 380.3 540 379.3C600 378.3 660 370.7 720 369.7C780 368.7 840 374.3 870 377.2L900 380L900 451L870 451C840 451 780 451 720 451C660 451 600 451 540 451C480 451 420 451 360 451C300 451 240 451 180 451C120 451 60 451 30 451L0 451Z" fill="#4f46e5"></path><path d="M0 379L30 377.7C60 376.3 120 373.7 180 373.5C240 373.3 300 375.7 360 378.3C420 381 480 384 540 385.3C600 386.7 660 386.3 720 384C780 381.7 840 377.3 870 375.2L900 373L900 451L870 451C840 451 780 451 720 451C660 451 600 451 540 451C480 451 420 451 360 451C300 451 240 451 180 451C120 451 60 451 30 451L0 451Z" fill="#7f3bd6"></path><path d="M0 407L30 407C60 407 120 407 180 403.2C240 399.3 300 391.7 360 386.3C420 381 480 378 540 377.3C600 376.7 660 378.3 720 381.5C780 384.7 840 389.3 870 391.7L900 394L900 451L870 451C840 451 780 451 720 451C660 451 600 451 540 451C480 451 420 451 360 451C300 451 240 451 180 451C120 451 60 451 30 451L0 451Z" fill="#9d2ec6"></path><path d="M0 383L30 387.7C60 392.3 120 401.7 180 402.5C240 403.3 300 395.7 360 393.8C420 392 480 396 540 398.8C600 401.7 660 403.3 720 403.7C780 404 840 403 870 402.5L900 402L900 451L870 451C840 451 780 451 720 451C660 451 600 451 540 451C480 451 420 451 360 451C300 451 240 451 180 451C120 451 60 451 30 451L0 451Z" fill="#b322b5"></path><path d="M0 414L30 415C60 416 120 418 180 417.8C240 417.7 300 415.3 360 413.3C420 411.3 480 409.7 540 407.5C600 405.3 660 402.7 720 402.7C780 402.7 840 405.3 870 406.7L900 408L900 451L870 451C840 451 780 451 720 451C660 451 600 451 540 451C480 451 420 451 360 451C300 451 240 451 180 451C120 451 60 451 30 451L0 451Z" fill="#c317a5"></path><path d="M0 413L30 414.8C60 416.7 120 420.3 180 420C240 419.7 300 415.3 360 412.3C420 409.3 480 407.7 540 408C600 408.3 660 410.7 720 414C780 417.3 840 421.7 870 423.8L900 426L900 451L870 451C840 451 780 451 720 451C660 451 600 451 540 451C480 451 420 451 360 451C300 451 240 451 180 451C120 451 60 451 30 451L0 451Z" fill="#cf1495"></path><path d="M0 421L30 421.5C60 422 120 423 180 424.2C240 425.3 300 426.7 360 427.5C420 428.3 480 428.7 540 429.5C600 430.3 660 431.7 720 429.7C780 427.7 840 422.3 870 419.7L900 417L900 451L870 451C840 451 780 451 720 451C660 451 600 451 540 451C480 451 420 451 360 451C300 451 240 451 180 451C120 451 60 451 30 451L0 451Z" fill="#d61b85"></path><path d="M0 431L30 431C60 431 120 431 180 431.7C240 432.3 300 433.7 360 434.3C420 435 480 435 540 435.5C600 436 660 437 720 437.3C780 437.7 840 437.3 870 437.2L900 437L900 451L870 451C840 451 780 451 720 451C660 451 600 451 540 451C480 451 420 451 360 451C300 451 240 451 180 451C120 451 60 451 30 451L0 451Z" fill="#db2777"></path></svg>